<?xml version="1.0"?>
<svg xmlns="http://www.w3.org/2000/svg" id="Layer_1" data-name="Layer 1" viewBox="0 0 512 512" width="512" height="512"><title>Sign</title><path d="M471.81,147.06,372.8,241.02H40.19V53.1H372.8ZM185.94,194.95,161.1,164.47h20.97l-26.6-27.85h20.81L152.5,111.19h14.4L139.67,81.11v-.86l-28.8,30.94h14.56l-23.95,25.43H123L96.4,164.47h22.54L93.39,194.95h33.9v23.46h25.75V194.95Z" style="fill:#00efd1"/><polygon points="161.1 164.47 185.94 194.95 153.04 194.95 127.29 194.95 93.39 194.95 118.94 164.47 96.4 164.47 123 136.62 101.48 136.62 125.43 111.19 110.87 111.19 139.67 80.25 139.67 81.11 166.9 111.19 152.5 111.19 176.28 136.62 155.47 136.62 182.07 164.47 161.1 164.47" style="fill:#46c43d"/><polygon points="153.04 195.22 153.04 218.41 127.29 218.41 127.29 195.22 127.29 194.95 153.04 194.95 153.04 195.22" style="fill:#f4b844"/><rect x="77.96" y="241.02" width="67.03" height="254.04" style="fill:#00acea"/><polygon points="144.99 52.56 144.99 53.1 77.96 53.1 77.96 52.81 77.96 16.94 144.99 16.94 144.99 52.56" style="fill:#00acea"/><path d="M378.307,47.247A8.052,8.052,0,0,0,372.8,45H153V16.94A7.957,7.957,0,0,0,144.99,9H77.96A7.915,7.915,0,0,0,70,16.94V45H40.19A8.25,8.25,0,0,0,32,53.1V241.02A8.148,8.148,0,0,0,40.19,249H70V495.06A7.915,7.915,0,0,0,77.96,503h67.03a7.957,7.957,0,0,0,8.01-7.94V249H372.8a7.993,7.993,0,0,0,5.507-2.187l99.009-93.955a8.023,8.023,0,0,0,0-11.627ZM86,25h51V45H86Zm51,462H86V249h51ZM369.608,233H48V61H369.608l90.58,86Z" style="fill:#083863"/><path d="M216,128h79a8,8,0,0,0,0-16H216a8,8,0,0,0,0,16Z" style="fill:#083863"/><path d="M208,156a8,8,0,0,0,8,8H379a8,8,0,0,0,0-16H216A8,8,0,0,0,208,156Z" style="fill:#083863"/><path d="M379,184H216a8,8,0,0,0,0,16H379a8,8,0,0,0,0-16Z" style="fill:#083863"/><path d="M177.939,172h4.131a7.793,7.793,0,0,0,7.356-4.619,7.5,7.5,0,0,0-1.571-8.364L174.174,145h2.106a8.214,8.214,0,0,0,5.843-13.749L170.248,118.5a8.041,8.041,0,0,0,2.583-12.671L147.176,77.486A8,8,0,0,0,133.814,74.8l-28.8,30.939a8,8,0,0,0,2.56,12.74L95.656,131.135a8.317,8.317,0,0,0-1.52,8.847A8.177,8.177,0,0,0,101.48,145H104.3L90.615,159.135a7.469,7.469,0,0,0-1.57,8.341A7.711,7.711,0,0,0,96.4,172H101.8L87.259,189.576a8.242,8.242,0,0,0-1.119,8.664A8.133,8.133,0,0,0,93.39,203H119v15.41c0,4.419,3.872,7.59,8.29,7.59h25.75a7.626,7.626,0,0,0,7.96-7.59V203h24.94a8.024,8.024,0,0,0,7.226-4.592,8.432,8.432,0,0,0-1.024-8.735ZM145,210H135v-7h10Zm-34.465-23,14.536-17.366a8.424,8.424,0,0,0,1.119-8.769A8.235,8.235,0,0,0,118.94,156H115.1l13.681-14.09a7.5,7.5,0,0,0,1.57-8.363A7.728,7.728,0,0,0,123,129h-3l11.25-12.135a8.13,8.13,0,0,0-2.628-12.962l10.567-11.375,10.231,11.289a7.985,7.985,0,0,0-4.263,4.194,8.313,8.313,0,0,0,1.5,8.836L157.847,129H155.47a7.832,7.832,0,0,0-7.356,4.664,7.467,7.467,0,0,0,1.571,8.341l13.681,14H161.1a8.29,8.29,0,0,0-6.2,13.432L169.1,187Z" style="fill:#083863"/></svg>
