<?xml version="1.0"?>
<svg xmlns="http://www.w3.org/2000/svg" id="Layer_1" data-name="Layer 1" viewBox="0 0 512 512" width="512" height="512"><title>Tree</title><path d="M450,414.66a52.782,52.782,0,1,1,.56.01C450.37,414.67,450.19,414.67,450,414.66Z" style="fill:#46c43d"/><path d="M323,347.3a95.52,95.52,0,1,1,.06,0Z" style="fill:#87e680"/><polygon points="179.95 306.79 236.26 397.81 135.54 397.81 108.57 397.81 7.85 397.81 66.05 306.79 15.98 306.79 77.04 217.92 29.71 217.92 83.59 137.39 55.07 137.39 122.05 31.03 122.05 33.98 184.81 137.39 156.71 137.39 210.17 217.92 164.74 217.92 225.81 306.79 179.95 306.79" style="fill:#46c43d"/><polygon points="135.54 398.75 135.54 478.48 108.57 478.48 108.57 398.75 108.57 397.81 135.54 397.81 135.54 398.75" style="fill:#f4b844"/><path d="M353.243,257.373,331,279.616V216a8,8,0,0,0-16,0v38.076l-16.18-13.128a8,8,0,0,0-10.08,12.425L315,274.679V481a8,8,0,0,0,16,0V302.244l33.558-33.557a8,8,0,1,0-11.315-11.314Z" style="fill:#f4b844"/><path d="M476.277,361.853a8,8,0,0,0-11.314,0L458,368.816V344a8,8,0,0,0-16,0v10.68l-2.79-2.263a8,8,0,0,0-10.08,12.426L442,375.281V480a8,8,0,0,0,16,0V391.444l18.277-18.277A8,8,0,0,0,476.277,361.853Z" style="fill:#f4b844"/></svg>
